# xmcd CD database file
#
# Track frame offsets:
#	150
#	14373
#	23905
#	41545
#	55150
#	69284
#	84550
#	99539
#	115070
#	127954
#	142486
#	157980
#	170851
#	187090
#
# Disc length: 2616 seconds
#
# Revision: 0
# Processed by: cddbd v1.5.2PL0 Copyright (c) Steve Scherf et al.
# Submitted via: CDex 1.74
#
DISCID=c00a360e
DTITLE=Jazz sous la lune - Berceuse et standard jazz
DYEAR=1900
DGENRE=Jazz
TTITLE0=Willow Weep for me
TTITLE1=Gone with the Wind
TTITLE2=It Might as Well be Spring
TTITLE3=Winter Wonderland
TTITLE4=Let it Snow! Let it Snow! Let it Snow!
TTITLE5=December
TTITLE6=Winter Weather
TTITLE7=Santa Baby
TTITLE8=Stormy Weather
TTITLE9=Blue Moon
TTITLE10=Come Rain or Come Shine
TTITLE11=Snow is Falling
TTITLE12=What Are You Doing New Year's Eve
TTITLE13=Moon River
EXTD=
EXTT0=
EXTT1=
EXTT2=
EXTT3=
EXTT4=
EXTT5=
EXTT6=
EXTT7=
EXTT8=
EXTT9=
EXTT10=
EXTT11=
EXTT12=
EXTT13=
PLAYORDER=
